# xmcd
#
# Track frame offsets:
#	150
#	16770
#	31238
#	43840
#	61692
#	82342
#	97140
#	116117
#	130995
#	145851
#	160000
#	176427
#	193984
#	208446
#	222225
#	236265
#	251150
#	264461
#	280068
#	293369
#	307670
#
# Disc length: 4335 seconds
#
# Revision: 1
# Processed by: cddbd v1.5.2PL0 Copyright (c) Steve Scherf et al.
# Submitted via: dBpowerAMP V4.0
#
DISCID=3210ed15
DTITLE=Various Artist - MHC Hot Country Volume 232
DYEAR=2015
DGENRE=Country
TTITLE0=Keith Urban - John Cougar John Deere John 3:16
TTITLE1=Luke Bryan - Kick The Dust Up
TTITLE2=Jake Owen - Real Life
TTITLE3=Darius Rucker - Southern Style
TTITLE4=Southern Style - Thinking Out Loud
TTITLE5=Chris Young - I'm Coming Over
TTITLE6=Billy Currington - Drinkin Town With A Football Problem
TTITLE7=Tim McGraw - Diamond Rings And Old Bar Stools
TTITLE8=Wes Mack - The Way You Let Me Down
TTITLE9=Sam Hunt - House Party
TTITLE10=Florida Georgia Line - Anything Goes
TTITLE11=Steven Lee Olsen - Steven Lee Olsen
TTITLE12=Hunter Hayes - 21
TTITLE13=Craig Campbell - Tomorrow Tonight
TTITLE14=Chase Bryant - Little Bit Of You
TTITLE15=Lee Brice - That Don't Sound Like You
TTITLE16=Randy Houser - We Went
TTITLE17=LoCash - I Love This Life
TTITLE18=Cadillac Three, The - White Lightning
TTITLE19=Genevieve Fisher - Boomerang
TTITLE20=Alee - Moonshine
EXTD=
EXTT0=
EXTT1=
EXTT2=
EXTT3=
EXTT4=
EXTT5=
EXTT6=
EXTT7=
EXTT8=
EXTT9=
EXTT10=
EXTT11=
EXTT12=
EXTT13=
EXTT14=
EXTT15=
EXTT16=
EXTT17=
EXTT18=
EXTT19=
EXTT20=
PLAYORDER=
